<?xml version="1.0" standalone="no"?>
<!DOCTYPE svg PUBLIC "-//W3C//DTD SVG 20010904//EN"
 "http://www.w3.org/TR/2001/REC-SVG-20010904/DTD/svg10.dtd">
<svg version="1.0" xmlns="http://www.w3.org/2000/svg"
 width="5000.000000pt" height="5000.000000pt" viewBox="0 0 5000.000000 5000.000000"
 preserveAspectRatio="xMidYMid meet">

<g transform="translate(0.000000,5000.000000) scale(0.100000,-0.100000)"
fill="#000000" stroke="none">
<path d="M10694 40309 c-487 -35 -966 -258 -1319 -613 -318 -319 -508 -687
-591 -1141 -22 -121 -30 -441 -15 -576 94 -821 649 -1509 1429 -1769 589 -197
1237 -123 1764 201 l98 60 2202 -552 c1212 -303 2206 -554 2210 -558 3 -3 110
-388 236 -856 239 -881 744 -2742 1048 -3865 96 -355 204 -751 239 -880 35
-129 129 -476 209 -770 80 -294 397 -1466 706 -2605 309 -1138 669 -2468 801
-2955 132 -487 308 -1135 391 -1440 82 -305 155 -575 162 -600 l13 -45 1037
-3 1036 -2 -2 -1173 -3 -1172 -1993 -3 -1992 -2 2 -1168 3 -1167 11128 -3
11127 -2 0 1170 0 1170 -7965 0 -7965 0 0 1175 0 1175 7273 0 7273 0 283 1383
c156 760 418 2035 582 2832 163 798 324 1583 357 1745 34 162 225 1097 426
2076 l366 1782 0 1221 0 1221 -10933 0 -10934 0 -11 38 c-6 20 -232 852 -502
1847 -271 996 -495 1813 -498 1816 -4 3 -1229 311 -2722 684 -1493 373 -2718
681 -2722 684 -4 4 -22 56 -38 116 -136 483 -451 910 -875 1188 -291 190 -635
307 -988 336 -140 12 -169 12 -333 0z m28166 -9138 c0 -9 -86 -433 -294 -1446
-69 -335 -292 -1424 -496 -2420 -204 -995 -454 -2215 -555 -2710 -102 -495
-185 -904 -185 -908 0 -4 -3433 -7 -7630 -7 -4196 0 -7630 2 -7630 4 0 2 -142
527 -316 1167 -173 640 -430 1587 -570 2104 -141 517 -298 1095 -349 1285
-552 2034 -795 2931 -795 2935 0 3 4235 5 9410 5 5496 0 9410 -4 9410 -9z"/>
<path d="M24945 29840 c-448 -56 -792 -412 -836 -865 -7 -73 -9 -614 -7 -1625
4 -1399 5 -1521 21 -1587 38 -156 111 -299 214 -418 316 -365 844 -438 1249
-173 245 161 401 428 422 722 4 50 5 784 2 1631 l-6 1540 -21 75 c-70 241
-238 457 -449 579 -170 98 -397 145 -589 121z"/>
<path d="M29426 29840 c-103 -13 -162 -28 -256 -68 -301 -126 -514 -391 -575
-714 -14 -74 -15 -263 -12 -1668 3 -1580 3 -1585 24 -1655 32 -108 51 -154 89
-224 245 -446 808 -625 1257 -400 293 148 481 406 527 724 8 58 10 513 8 1645
l-4 1565 -21 77 c-90 317 -295 546 -594 663 -123 48 -309 71 -443 55z"/>
<path d="M33901 29839 c-391 -45 -711 -326 -814 -712 l-22 -82 0 -1620 0
-1620 23 -80 c59 -203 165 -370 313 -491 253 -207 588 -273 894 -177 191 60
361 179 475 333 113 153 172 307 190 503 8 76 10 597 8 1617 -4 1403 -5 1510
-22 1580 -98 412 -427 707 -836 750 -106 11 -106 11 -209 -1z"/>
<path d="M23495 15699 c-1193 -122 -2190 -922 -2565 -2059 -92 -277 -137 -539
-147 -840 -16 -533 94 -1020 339 -1490 226 -435 577 -828 987 -1104 410 -276
852 -436 1366 -497 147 -17 504 -14 660 5 390 49 710 148 1041 320 1157 603
1792 1876 1579 3163 -157 949 -752 1756 -1615 2192 -293 149 -579 239 -925
292 -150 24 -568 34 -720 18z m404 -2059 c302 -38 561 -223 700 -497 80 -160
110 -379 76 -558 -54 -287 -248 -537 -510 -656 -132 -59 -205 -74 -375 -74
-131 0 -167 4 -233 23 -327 94 -559 333 -643 662 -28 109 -25 324 5 435 119
438 535 720 980 665z"/>
<path d="M35510 15704 c-606 -54 -1154 -271 -1630 -644 -134 -105 -403 -376
-501 -505 -347 -455 -542 -928 -615 -1490 -21 -159 -24 -543 -5 -690 29 -234
89 -495 155 -679 270 -746 799 -1340 1501 -1686 392 -194 732 -284 1172 -310
541 -33 1095 90 1583 350 788 420 1355 1182 1528 2056 48 242 57 337 56 614
-1 273 -16 420 -69 650 -97 421 -276 803 -543 1159 -101 135 -395 435 -522
532 -364 280 -733 461 -1153 564 -239 58 -390 76 -667 80 -135 1 -265 1 -290
-1z m349 -2064 c360 -46 649 -292 758 -647 24 -79 27 -104 27 -243 1 -170 -14
-244 -73 -375 -118 -260 -364 -452 -650 -510 -112 -23 -304 -16 -409 14 -384
111 -640 434 -659 831 -12 254 82 494 264 672 109 108 203 168 329 212 141 49
270 63 413 46z"/>
</g>
</svg>
